<?xml version="1.0" encoding="UTF-8"?>
<svg id="Capa_1" xmlns="http://www.w3.org/2000/svg" xmlns:xlink="http://www.w3.org/1999/xlink" version="1.1" viewBox="0 0 512 512">
  <!-- Generator: Adobe Illustrator 29.7.1, SVG Export Plug-In . SVG Version: 2.1.1 Build 8)  -->
  <defs>
    <style>
      .st0, .st1 {
        fill: none;
      }

      .st1 {
        stroke: #e52336;
        stroke-linecap: round;
        stroke-linejoin: round;
        stroke-width: 14.99px;
      }

      .st2 {
        clip-path: url(#clippath);
      }
    </style>
    <clipPath id="clippath">
      <rect class="st0" y="0" width="512" height="512"/>
    </clipPath>
  </defs>
  <path class="st1" d="M357.64,198.92v48.64h-203.3V116.29M357.64,116.29v48.64"/>
  <path class="st1" d="M274.24,247.57h46.89v-92.24h-46.89v92.24ZM190.85,202.21h46.88v-46.89h-46.88v46.89Z"/>
  <g class="st2">
    <g>
      <path class="st1" d="M179.76,52.86v38.04c0,13.97-11.45,25.4-25.43,25.4s-25.43-11.42-25.43-25.4v-38.04h50.85Z"/>
      <path class="st1" d="M230.59,52.86v38.04c0,13.97-11.45,25.4-25.43,25.4s-25.4-11.42-25.4-25.4v-38.04h50.83Z"/>
      <path class="st1" d="M281.41,52.86v38.04c0,13.97-11.45,25.4-25.43,25.4s-25.4-11.42-25.4-25.4v-38.04h50.82Z"/>
      <path class="st1" d="M332.24,52.86v38.04c0,13.97-11.45,25.4-25.43,25.4s-25.4-11.42-25.4-25.4v-38.04h50.83Z"/>
      <path class="st1" d="M383.06,52.86v38.04c0,13.97-11.42,25.4-25.43,25.4s-25.4-11.42-25.4-25.4v-38.04h50.82Z"/>
      <path class="st1" d="M192.18,466.68v36H28.02v-105.99M192.18,396.7v36.03"/>
      <path class="st1" d="M124.86,502.68h37.84v-74.47h-37.84v74.47ZM57.5,466.06h37.84v-37.84h-37.84v37.84Z"/>
      <path class="st1" d="M48.55,345.48v30.7c0,11.31-9.24,20.52-20.52,20.52s-20.52-9.21-20.52-20.52v-30.7h41.05Z"/>
      <path class="st1" d="M89.56,345.48v30.7c0,11.31-9.21,20.52-20.49,20.52s-20.52-9.21-20.52-20.52v-30.7h41.02Z"/>
      <path class="st1" d="M130.61,345.48v30.7c0,11.31-9.21,20.52-20.52,20.52s-20.52-9.21-20.52-20.52v-30.7h41.04Z"/>
      <path class="st1" d="M171.66,345.48v30.7c0,11.31-9.24,20.52-20.52,20.52s-20.52-9.21-20.52-20.52v-30.7h41.05Z"/>
      <path class="st1" d="M212.7,345.48v30.7c0,11.31-9.24,20.52-20.52,20.52s-20.52-9.21-20.52-20.52v-30.7h41.04ZM212.7,345.48H7.5l14.54-35.18h176.09l14.57,35.18Z"/>
      <path class="st1" d="M483.98,466.68v36h-164.18v-105.99M483.98,396.7v36.03"/>
      <path class="st1" d="M416.62,502.68h37.84v-74.47h-37.84v74.47ZM349.3,466.06h37.84v-37.84h-37.84v37.84Z"/>
      <path class="st1" d="M340.32,345.48v30.7c0,11.31-9.24,20.52-20.52,20.52s-20.52-9.21-20.52-20.52v-30.7h41.04Z"/>
      <path class="st1" d="M381.36,345.48v30.7c0,11.31-9.24,20.52-20.52,20.52s-20.52-9.21-20.52-20.52v-30.7h41.05Z"/>
      <path class="st1" d="M422.41,345.48v30.7c0,11.31-9.24,20.52-20.52,20.52s-20.52-9.21-20.52-20.52v-30.7h41.04Z"/>
      <path class="st1" d="M463.45,345.48v30.7c0,11.31-9.24,20.52-20.52,20.52s-20.52-9.21-20.52-20.52v-30.7h41.04Z"/>
      <path class="st1" d="M504.5,345.48v30.7c0,11.31-9.24,20.52-20.52,20.52s-20.52-9.21-20.52-20.52v-30.7h41.05ZM504.5,345.48h-205.23l14.57-35.18h176.09l14.57,35.18Z"/>
      <path class="st1" d="M383.06,52.86h-254.15l18.06-43.54h218.07l18.03,43.54Z"/>
      <path class="st1" d="M463.45,276.34v-97.57h-71.83M120.35,178.77H48.55v97.57"/>
    </g>
  </g>
</svg>