<?xml version="1.0" encoding="UTF-8"?>
<svg id="Capa_1" xmlns="http://www.w3.org/2000/svg" xmlns:xlink="http://www.w3.org/1999/xlink" version="1.1" viewBox="0 0 512 512">
  <!-- Generator: Adobe Illustrator 29.7.1, SVG Export Plug-In . SVG Version: 2.1.1 Build 8)  -->
  <defs>
    <style>
      .st0, .st1 {
        fill: none;
      }

      .st1 {
        stroke: #e52336;
        stroke-linecap: round;
        stroke-linejoin: round;
        stroke-width: 15px;
      }

      .st2 {
        clip-path: url(#clippath);
      }
    </style>
    <clipPath id="clippath">
      <rect class="st0" y="0" width="512" height="512"/>
    </clipPath>
  </defs>
  <g class="st2">
    <g>
      <path class="st1" d="M138.56,267.98c-4.36-48.27,3.21-105.85,19-136.15,2.44-4.68,9.65-4.7,12.13-.05,4.81,9,9.18,22.23,12.81,36.38"/>
      <path class="st1" d="M149.12,256.78c10.68-40.07,27.85-81.51,52.24-124.47,1.41-2.5,5.4-1.53,5.4,1.3v76.28"/>
      <path class="st1" d="M282.29,35.8v39.94h40.34v-39.94c0-3.17-2.57-5.73-5.73-5.73h-28.88c-3.17,0-5.73,2.57-5.73,5.73,0,0,0,0,0,0Z"/>
      <path class="st1" d="M258.92,305.42c-2.92,0-5.29-2.37-5.29-5.3v-1.2"/>
      <path class="st1" d="M351.29,210.31v89.81c0,2.93-2.37,5.3-5.29,5.3"/>
      <path class="st1" d="M253.63,272.14v-109.9c0-15.08,7.19-29.26,19.35-38.16l6.03-4.42c2.06-1.51,3.28-3.91,3.28-6.47v-37.45h40.34v37.45c0,2.56,1.22,4.96,3.28,6.47l6.03,4.42c12.16,8.91,19.35,23.08,19.35,38.16v13.07"/>
      <path class="st1" d="M108.38,305.42c-2.7,0-5.32-.88-7.47-2.5l-30.96-23.36c-3.16-2.39-1.47-7.42,2.49-7.42h204.38c3.96,0,5.65,5.03,2.48,7.42l-30.96,23.36c-2.15,1.62-4.77,2.5-7.47,2.5"/>
      <path class="st1" d="M134.99,272.14c19.58-23.46,47.88-46.19,80.89-68.52,2.05-1.39,4.81.07,4.81,2.54v65.97"/>
      <path class="st1" d="M253.63,234.47l45.71,16.14c1.95.69,4.07.69,6.02,0l45.93-16.14"/>
      <path class="st1" d="M350.56,153.93h-96.19"/>
      <path class="st1" d="M412.72,274.3v-39.45"/>
      <path class="st1" d="M394.64,167.37l-6.64,43.37c-1.94,12.68,7.87,24.11,20.7,24.11h8.02c12.83,0,22.64-11.43,20.7-24.11l-6.64-43.37c-.33-2.13-2.15-3.7-4.31-3.7h-27.55c-2.15,0-3.98,1.57-4.31,3.7Z"/>
      <path class="st1" d="M384.56,305.42c-1.68,0-2.96-1.47-2.8-3.14,1.57-15.71,14.83-27.98,30.96-27.98s29.39,12.27,30.96,27.98c.17,1.67-1.12,3.14-2.8,3.14"/>
      <path class="st1" d="M15.69,341.45l.82-8.93c1.4-15.36,14.29-27.11,29.71-27.11h419.58c15.42,0,28.3,11.75,29.71,27.11l8.96,97.94c.34,3.7-1.41,7.27-4.53,9.28-25.94,16.63-60.79,22.34-91.54,14.13-41.1,29.35-105.59,37.44-152.38,15.79-46.8,21.65-111.28,13.55-152.38-15.79-30.76,8.21-65.6,2.5-91.54-14.13-3.12-2.01-4.87-5.58-4.53-9.28l4.94-54.01"/>
      <path class="st1" d="M256,469.67v-75.99"/>
      <path class="st1" d="M408.39,453.88v-55.13"/>
      <path class="st1" d="M103.61,453.88v-55.13"/>
    </g>
  </g>
</svg>