<?xml version="1.0" encoding="UTF-8"?>
<svg id="Capa_1" xmlns="http://www.w3.org/2000/svg" version="1.1" viewBox="0 0 512 512">
  <!-- Generator: Adobe Illustrator 29.7.1, SVG Export Plug-In . SVG Version: 2.1.1 Build 8)  -->
  <defs>
    <style>
      .st0 {
        fill: #e52336;
      }
    </style>
  </defs>
  <path class="st0" d="M66.72,287.81c-4.65,0-7.76-3.1-7.76-7.76v-117.92c0-4.65,3.1-7.76,7.76-7.76s7.76,3.1,7.76,7.76v117.92c0,3.88-3.88,7.76-7.76,7.76ZM445.28,287.81c-4.65,0-7.76-3.1-7.76-7.76v-117.92c0-4.65,3.1-7.76,7.76-7.76s7.76,3.1,7.76,7.76v117.92c0,3.88-3.1,7.76-7.76,7.76ZM434.42,475.54H77.58c-21.72,0-38.79-17.07-38.79-38.79v-110.93c0-4.65,3.1-7.76,7.76-7.76s7.76,3.1,7.76,7.76v110.93c0,13.19,10.08,23.27,23.27,23.27h356.85c13.19,0,23.27-10.08,23.27-23.27v-110.93c0-4.65,3.1-7.76,7.76-7.76s7.76,3.1,7.76,7.76v110.93c0,20.95-17.84,38.79-38.79,38.79Z"/>
  <path class="st0" d="M470.11,333.58H41.89c-17.07,0-31.03-13.96-31.03-31.03s13.96-31.03,31.03-31.03h427.44c17.07,0,31.03,13.96,31.03,31.03s-13.96,31.03-30.25,31.03ZM41.89,287.81c-8.53,0-15.52,6.98-15.52,15.52s6.98,15.52,15.52,15.52h427.44c8.53,0,15.52-6.98,15.52-15.52s-6.98-15.52-15.52-15.52H41.89ZM161.36,169.89c-30.25,0-55.08-24.82-55.08-55.08v-13.19c0-4.65,3.1-7.76,7.76-7.76h94.64c4.65,0,7.76,3.1,7.76,7.76v13.19c0,30.25-24.82,55.08-55.08,55.08h0ZM121.79,109.38v5.43c0,21.72,17.84,39.56,39.56,39.56s39.56-17.84,39.56-39.56v-5.43h-79.13ZM350.64,169.89c-30.25,0-55.08-24.82-55.08-55.08v-13.19c0-4.65,3.1-7.76,7.76-7.76h94.64c4.65,0,7.76,3.1,7.76,7.76v13.19c0,30.25-24.82,55.08-55.08,55.08h0ZM311.08,109.38v5.43c0,21.72,17.84,39.56,39.56,39.56s39.56-17.84,39.56-39.56v-5.43h-79.13Z"/>
  <path class="st0" d="M208.68,109.38h-94.64c-2.33,0-4.65-1.55-6.21-3.1-1.55-2.33-1.55-4.65-.78-6.98L141.19,7.76c.78-3.1,3.88-4.65,6.98-4.65h72.15c2.33,0,4.65.78,5.43,2.33,1.55,1.55,2.33,3.88,1.55,6.21l-11.64,91.54c0,3.1-3.1,6.21-6.98,6.21h0ZM124.9,93.87h76.8l9.31-76.02h-57.41l-28.7,76.02ZM397.96,109.38h-94.64c-3.88,0-6.98-3.1-7.76-6.98l-11.64-91.54c0-2.33.78-4.65,1.55-6.21,1.55-1.55,3.88-2.33,6.21-2.33h72.15c3.1,0,6.21,2.33,6.98,4.65l34.13,91.54c.78,2.33.78,5.43-.78,6.98-1.55,2.33-3.88,3.88-6.21,3.88h0ZM310.3,93.87h76.8l-28.7-76.02h-57.41l9.31,76.02Z"/>
  <path class="st0" d="M256,169.89c-30.25,0-55.08-24.82-55.08-55.08v-13.19c0-4.65,3.1-7.76,7.76-7.76h94.64c4.65,0,7.76,3.1,7.76,7.76v13.19c0,30.25-24.82,55.08-55.08,55.08ZM216.44,109.38v5.43c0,21.72,17.84,39.56,39.56,39.56s39.56-17.84,39.56-39.56v-5.43h-79.13ZM445.28,169.89c-30.25,0-55.08-24.82-55.08-55.08v-13.19c0-4.65,3.1-7.76,7.76-7.76h94.64c4.65,0,7.76,3.1,7.76,7.76v13.19c0,30.25-24.82,55.08-55.08,55.08ZM405.72,109.38v5.43c0,21.72,17.84,39.56,39.56,39.56s39.56-17.84,39.56-39.56v-5.43h-79.13Z"/>
  <path class="st0" d="M303.32,109.38h-94.64c-2.33,0-4.65-.78-5.43-2.33-1.55-1.55-2.33-3.88-1.55-6.21l11.64-91.54c.78-3.88,3.88-6.98,7.76-6.98h72.15c3.88,0,6.98,3.1,7.76,6.98l10.08,91.54c0,2.33-.78,4.65-1.55,6.21-1.55,1.55-3.88,2.33-6.21,2.33ZM217.21,93.87h77.58l-9.31-76.02h-58.18l-10.08,76.02ZM492.61,109.38h-94.64c-3.1,0-6.21-2.33-6.98-4.65l-34.91-92.32c-.78-2.33-.78-5.43.78-6.98,1.55-2.33,3.88-3.1,6.21-3.1h53.53c13.96,0,27.15,7.76,34.13,20.17l47.32,73.7c1.55,1.55,2.33,3.1,2.33,5.43,0,3.88-3.1,7.76-7.76,7.76h0ZM403.39,93.87h75.25l-41.12-63.61c-4.65-7.76-11.64-12.41-20.17-12.41h-41.89l27.93,76.02ZM66.72,169.89c-30.25,0-55.08-24.82-55.08-55.08v-13.19c0-4.65,3.1-7.76,7.76-7.76h94.64c4.65,0,7.76,3.1,7.76,7.76v13.19c0,30.25-24.82,55.08-55.08,55.08ZM27.15,109.38v5.43c0,21.72,17.84,39.56,39.56,39.56s39.56-17.84,39.56-39.56v-5.43H27.15Z"/>
  <path class="st0" d="M114.04,109.38H19.39c-3.1,0-5.43-1.55-6.98-3.88s-1.55-5.43,0-7.76L61.28,22.5c6.21-11.64,19.39-19.39,33.36-19.39h53.53c2.33,0,4.65,1.55,6.21,3.1,1.55,2.33,1.55,4.65.78,6.98l-34.13,91.54c-.78,2.33-3.88,4.65-6.98,4.65ZM33.36,93.87h75.25l28.7-76.02h-41.89c-8.53,0-16.29,4.65-20.17,12.41l-41.89,63.61ZM158.25,509.67h-65.16c-4.65,0-7.76-3.1-7.76-7.76v-34.13c0-4.65,3.1-7.76,7.76-7.76h65.94c4.65,0,7.76,3.1,7.76,7.76v34.13c-.78,4.65-3.88,7.76-8.53,7.76ZM100.85,494.16h50.42v-18.62h-50.42v18.62ZM418.91,509.67h-65.94c-4.65,0-7.76-3.1-7.76-7.76v-34.13c0-4.65,3.1-7.76,7.76-7.76h65.94c4.65,0,7.76,3.1,7.76,7.76v34.13c0,4.65-3.1,7.76-7.76,7.76ZM361.5,494.16h49.65v-18.62h-50.42v18.62h.78Z"/>
</svg>