<?xml version="1.0" encoding="UTF-8"?>
<svg id="Capa_1" xmlns="http://www.w3.org/2000/svg" version="1.1" viewBox="0 0 512 512">
  <!-- Generator: Adobe Illustrator 29.7.1, SVG Export Plug-In . SVG Version: 2.1.1 Build 8)  -->
  <defs>
    <style>
      .st0 {
        fill: #e52336;
      }
    </style>
  </defs>
  <path class="st0" d="M486.4,170.67h-9.05c-5.28-76.01-80.1-136.53-171.58-136.53h-8.68c1.01-2.73,1.54-5.62,1.57-8.53C298.67,11.46,287.21,0,273.07,0s-25.6,11.46-25.6,25.6c.03,2.91.56,5.8,1.57,8.53h-8.68c-91.48,0-166.3,60.52-171.58,136.53h-9.05c-14.14,0-25.6,11.46-25.6,25.6s11.46,25.6,25.6,25.6h94.72c-.51,1.86-.79,3.78-.81,5.72v28.42c1.34,23.64-4.71,47.11-17.31,67.15-2.51,4.76-4.97,9.55-7.38,14.36-6.37,12.58-11.24,25.86-14.51,39.57-9.77-5.23-21.79-3.65-29.87,3.93-37.19,35.48-59.14,47.7-68.92,51.84-9.49,3.96-15.67,13.25-15.66,23.53v30.01c0,14.14,11.46,25.6,25.6,25.6h122.03c5.81,0,11.45-1.98,15.99-5.61l23.09-18.48c10.97-8.69,12.82-24.63,4.13-35.6-.16-.2-.32-.39-.48-.59,18.42-19.79,40.03-36.35,63.93-49,4.93-2.46,9.32-5.86,12.94-10.02,22.75-26.41,48.34-50.22,76.33-71,8.86-6.41,14.89-16,16.82-26.77,8.59-45.23,29.06-67.23,35.35-73.1h90.68c14.14,0,25.6-11.46,25.6-25.6s-11.46-25.6-25.6-25.6v.03ZM264.53,25.6c0-4.71,3.82-8.53,8.53-8.53s8.53,3.82,8.53,8.53-3.82,8.53-8.53,8.53-8.53-3.82-8.53-8.53ZM240.36,51.2h65.42c82,0,149.15,52.91,154.5,119.47H85.85c5.36-66.56,72.51-119.47,154.5-119.47ZM176.04,474.57l-23.1,18.49c-1.51,1.21-3.38,1.87-5.32,1.87H25.6c-4.71,0-8.53-3.82-8.53-8.53v-30.01c-.01-3.41,2.02-6.49,5.16-7.82,13.25-5.6,36.86-19.71,74.04-55.19,1.62-1.54,3.78-2.4,6.02-2.4,2.24,0,4.39.87,5.97,2.45l68.47,68.46c3.33,3.34,3.32,8.74-.01,12.07-.22.22-.45.43-.69.62h.02ZM343.62,291.79c-1.13,6.46-4.73,12.23-10.03,16.09-29.05,21.51-55.63,46.18-79.25,73.56-2.15,2.47-4.76,4.5-7.68,5.97-25.46,13.45-48.49,31.04-68.17,52.05l-49.29-49.29c2.67-15.69,7.73-30.88,15.01-45.03,2.61-5.23,5.03-9.86,7.24-14.11,13.88-22.48,20.59-48.66,19.21-75.04v-28.42c0-3.16,2.56-5.71,5.72-5.72,3.94,0,7.77,1.35,10.85,3.81,3.04,2.42,5.12,5.83,5.88,9.63,1.98,9.62,3.04,19.4,3.16,29.22-.28,12.07-1.36,24.1-3.24,36.02-2.69,19.65,11.06,37.76,30.7,40.45,1.62.22,3.25.33,4.88.33,8.71,0,17.13-3.15,23.71-8.86l54.02-47.36c5.09-4.44,9.04-10.03,11.51-16.32,10.08-25.05,22.52-42.42,33.54-46.93h21.52c-15.05,20.72-25.08,44.66-29.29,69.92h0ZM306.68,221.87h18.3c-9.65,12.34-17.4,26.05-23,40.67-1.47,3.76-3.84,7.1-6.89,9.75l-18.48,16.21c1.84-7.1,3.52-14.51,4.87-22.55,2.93-17.21,11.86-32.83,25.2-44.08ZM264.65,263.12c-2.45,16.54-7.11,32.68-13.85,47.99l-9.69,8.53c-8,6.59-19.76,5.78-26.78-1.85-3.57-4.07-5.18-9.5-4.42-14.86,2-12.71,3.14-25.54,3.41-38.4-.13-10.94-1.3-21.85-3.49-32.57-.74-3.55-2.05-6.96-3.88-10.09h77.26c-9.61,11.94-16,26.14-18.57,41.25h0ZM486.4,204.8H59.73c-4.71,0-8.53-3.82-8.53-8.53s3.82-8.53,8.53-8.53h426.67c4.71,0,8.53,3.82,8.53,8.53s-3.82,8.53-8.53,8.53Z"/>
  <path class="st0" d="M238.86,68.27c-56.63.49-106.5,28.21-127.06,70.62-2.06,4.24-.29,9.35,3.96,11.4,4.24,2.06,9.35.29,11.4-3.96,17.49-36.06,62.45-60.59,111.87-61,4.7-.05,8.48-3.9,8.44-8.6-.09-4.69-3.92-8.45-8.61-8.47Z"/>
</svg>