<?xml version="1.0" encoding="UTF-8"?>
<svg id="logo-symbol" xmlns="http://www.w3.org/2000/svg" version="1.1" viewBox="0 0 350 233.32">
  <!-- Generator: Adobe Illustrator 29.6.1, SVG Export Plug-In . SVG Version: 2.1.1 Build 9)  -->
  <defs>
    <style>
      .st0 {
        fill: #f62400;
      }

      .st1 {
        fill: #ffc0bf;
      }
    </style>
  </defs>
  <path class="st1" d="M175,220.96c-57.51,0-104.3-46.79-104.3-104.3S117.49,12.36,175,12.36s104.3,46.79,104.3,104.3-46.79,104.3-104.3,104.3h0ZM175,42.36c-40.97,0-74.3,33.33-74.3,74.3s33.33,74.3,74.3,74.3,74.3-33.33,74.3-74.3-33.33-74.3-74.3-74.3Z"/>
  <path class="st0" d="M135.69,78.78v10.54h.3c2.81-4.01,6.2-7.12,10.17-9.34,3.97-2.21,8.51-3.31,13.63-3.31s9.41.96,13.48,2.87c4.07,1.9,7.16,5.27,9.27,10.09,2.3-3.42,5.44-6.42,9.41-9.03s8.66-3.92,14.08-3.92c4.11,0,7.93.5,11.44,1.51,3.52,1.01,6.53,2.61,9.04,4.82s4.47,5.1,5.87,8.67c1.41,3.57,2.11,7.86,2.11,12.87v52.12h-21.38v-44.13c0-2.61-.1-5.07-.3-7.38-.21-2.32-.75-4.33-1.66-6.03-.9-1.7-2.24-3.06-3.99-4.07-1.76-1.01-4.14-1.51-7.15-1.51s-5.45.59-7.31,1.74-3.32,2.66-4.37,4.51c-1.05,1.86-1.76,3.97-2.11,6.32-.36,2.37-.53,4.74-.53,7.16v43.38h-21.39v-43.68c0-2.3-.05-4.58-.15-6.85-.1-2.26-.53-4.34-1.27-6.25-.75-1.9-2.01-3.43-3.77-4.58s-4.35-1.74-7.76-1.74c-1,0-2.33.23-3.99.69-1.65.44-3.26,1.3-4.82,2.56-1.56,1.25-2.89,3.06-3.99,5.42-1.11,2.35-1.66,5.44-1.66,9.27v45.18h-21.39v-77.87h20.19v-.03Z"/>
</svg>