<?xml version="1.0" encoding="UTF-8"?>
<svg id="Capa_1" xmlns="http://www.w3.org/2000/svg" version="1.1" viewBox="0 0 350 101.24">
  <!-- Generator: Adobe Illustrator 29.6.0, SVG Export Plug-In . SVG Version: 2.1.1 Build 207)  -->
  <defs>
    <style>
      .st0 {
        fill: #e42436;
      }

      .st1 {
        display: none;
        fill: #f62400;
      }

      .st2 {
        fill: #ffc0bf;
      }
    </style>
  </defs>
  <g id="Vfinal">
    <g>
      <g>
        <path class="st1" d="M100.92,43.8h9.75c2.25,0,3.94.49,5.06,1.46,1.12.97,1.69,2.33,1.69,4.06,0,.97-.14,1.78-.43,2.42s-.62,1.15-1,1.54-.76.67-1.13.84-.64.29-.81.34v.06c.3.04.63.13.99.29.35.15.68.4.99.73.3.33.56.77.76,1.3.2.53.3,1.2.3,2,0,1.2.09,2.29.27,3.27s.46,1.68.84,2.1h-3.83c-.27-.44-.42-.92-.47-1.46-.05-.53-.07-1.05-.07-1.55,0-.93-.06-1.74-.17-2.42s-.32-1.24-.63-1.69c-.31-.45-.72-.78-1.24-.99-.52-.21-1.2-.31-2.02-.31h-5.26v8.41h-3.57v-20.42l-.02.02ZM104.49,53.09h5.86c1.14,0,2.01-.27,2.6-.81s.89-1.36.89-2.44c0-.65-.1-1.18-.29-1.59s-.45-.73-.79-.96c-.33-.23-.71-.38-1.14-.46-.43-.08-.87-.11-1.33-.11h-5.8v6.38h0Z"/>
        <path class="st0" d="M108.23,29.35h-5.17v-4.3c0-1.34-.08-2.49-.25-3.46-.16-.97-.46-1.78-.9-2.42s-1.03-1.11-1.78-1.41-1.72-.45-2.89-.45h-7.54v12.05h-5.12V.08h13.98c3.22,0,5.64.7,7.26,2.09,1.61,1.39,2.42,3.33,2.42,5.82,0,1.39-.21,2.55-.62,3.46-.41.92-.89,1.65-1.43,2.21-.55.56-1.09.96-1.62,1.21s-.92.41-1.17.49v.08c.44.06.91.19,1.41.41.51.22.98.57,1.41,1.04.44.48,2.01,1.7,2.01,7.42M89.7,13.4h8.4c1.64,0,2.88-.39,3.73-1.17.85-.78,1.27-1.95,1.27-3.5,0-.93-.14-1.69-.41-2.28s-.65-1.05-1.13-1.37c-.48-.33-1.02-.55-1.64-.66-.61-.11-1.25-.16-1.91-.16h-8.32v9.14h.01Z"/>
        <path class="st0" d="M113.44.08h21.07v4.43h-15.95v7.67h14.76v4.18h-14.76v8.57h16.23v4.43h-21.36V.08h0Z"/>
        <path class="st0" d="M142.62,19.59c0,1.12.19,2.08.57,2.87.38.79.92,1.44,1.6,1.95.68.51,1.47.88,2.36,1.11s1.85.35,2.89.35c1.12,0,2.08-.13,2.87-.39s1.43-.59,1.93-1c.49-.41.85-.88,1.07-1.41s.33-1.07.33-1.62c0-1.12-.25-1.95-.76-2.48-.51-.53-1.06-.91-1.66-1.13-1.04-.38-2.25-.75-3.63-1.09s-3.08-.79-5.1-1.33c-1.26-.33-2.3-.76-3.14-1.29s-1.5-1.13-1.99-1.78-.84-1.35-1.04-2.09c-.21-.74-.31-1.49-.31-2.26,0-1.48.31-2.75.92-3.83s1.43-1.97,2.44-2.68c1.01-.71,2.16-1.24,3.44-1.58,1.28-.34,2.58-.51,3.89-.51,1.53,0,2.97.2,4.32.59,1.35.4,2.54.99,3.57,1.78,1.02.79,1.84,1.77,2.44,2.93s.9,2.51.9,4.04h-5.12c-.14-1.89-.78-3.22-1.93-4-1.15-.78-2.61-1.17-4.39-1.17-.6,0-1.22.06-1.85.19-.63.12-1.2.33-1.72.61-.52.29-.95.67-1.29,1.17-.34.49-.51,1.11-.51,1.84,0,1.04.32,1.85.96,2.44.64.59,1.48,1.03,2.52,1.33.11.03.54.14,1.29.35s1.59.43,2.52.68c.93.25,1.84.49,2.73.72.89.23,1.52.4,1.91.51.96.3,1.79.71,2.5,1.23s1.3,1.11,1.78,1.78c.48.67.83,1.39,1.07,2.15.23.77.35,1.53.35,2.3,0,1.64-.33,3.04-1,4.2s-1.55,2.11-2.64,2.85-2.34,1.28-3.73,1.62-2.82.51-4.26.51c-1.67,0-3.24-.21-4.71-.61s-2.76-1.04-3.85-1.89c-1.09-.85-1.97-1.93-2.62-3.26-.66-1.32-1-2.89-1.02-4.69h5.12-.02Z"/>
        <path class="st0" d="M163.04.08h23.69v4.43h-9.3v24.84h-5.12V4.5h-9.26V.08h-.01Z"/>
        <path class="st0" d="M194.19.08h5.45l11.27,29.27h-5.49l-2.75-7.75h-11.68l-2.75,7.75h-5.29L194.19.08ZM192.39,17.7h8.94l-4.39-12.58h-.12l-4.43,12.58h0Z"/>
        <path class="st0" d="M213.37.08h5.12v17.05c0,.98.05,1.98.14,2.99.1,1.01.37,1.92.82,2.73.45.81,1.13,1.47,2.05,1.99s2.21.78,3.87.78,2.96-.26,3.87-.78c.92-.52,1.6-1.18,2.05-1.99s.72-1.72.82-2.73.14-2.01.14-2.99V.08h5.12v18.73c0,1.88-.29,3.52-.86,4.92-.57,1.39-1.39,2.56-2.44,3.5s-2.32,1.65-3.79,2.11c-1.48.46-3.12.7-4.92.7s-3.44-.23-4.92-.7c-1.48-.46-2.74-1.17-3.79-2.11-1.05-.94-1.87-2.11-2.44-3.5s-.86-3.03-.86-4.92V.08h.02Z"/>
        <path class="st0" d="M266.95,29.35h-5.17v-4.3c0-1.34-.08-2.49-.25-3.46-.16-.97-.46-1.78-.9-2.42s-1.03-1.11-1.78-1.41-1.72-.45-2.89-.45h-7.54v12.05h-5.12V.08h13.98c3.22,0,5.64.7,7.26,2.09,1.61,1.39,2.42,3.33,2.42,5.82,0,1.39-.21,2.55-.62,3.46-.41.92-.89,1.65-1.43,2.21-.55.56-1.09.96-1.62,1.21s-.92.41-1.17.49v.08c.44.06.91.19,1.41.41.51.22.98.57,1.41,1.04.44.48,2.01,1.7,2.01,7.42M248.42,13.4h8.4c1.64,0,2.88-.39,3.73-1.17s1.27-1.95,1.27-3.5c0-.93-.14-1.69-.41-2.28s-.65-1.05-1.13-1.37c-.48-.33-1.02-.55-1.64-.66-.61-.11-1.25-.16-1.91-.16h-8.32v9.14h.01Z"/>
        <path class="st0" d="M279.99.08h5.45l11.27,29.27h-5.5l-2.75-7.75h-11.68l-2.75,7.75h-5.29L279.99.08ZM278.18,17.7h8.94l-4.39-12.58h-.12l-4.43,12.58Z"/>
        <path class="st0" d="M299.29.08h5.41l13.36,21.56h.08V.08h4.88v29.27h-5.41l-13.32-21.52h-.12v21.52h-4.88V.08h0Z"/>
        <path class="st0" d="M326.31.08h23.69v4.43h-9.31v24.84h-5.12V4.5h-9.26V.08Z"/>
      </g>
      <g>
        <path class="st0" d="M26.99-.05h4.43v2.95h.12c.35-.52.74-1,1.15-1.43.41-.44.87-.81,1.37-1.11.51-.3,1.09-.54,1.74-.72.66-.18,1.41-.27,2.26-.27,1.28,0,2.48.29,3.59.86,1.11.57,1.89,1.46,2.36,2.66.79-1.09,1.71-1.95,2.75-2.58,1.04-.63,2.34-.94,3.89-.94,2.24,0,3.98.55,5.23,1.64,1.24,1.09,1.87,2.93,1.87,5.49v14.63h-4.67v-12.38c0-.85-.03-1.62-.08-2.32-.06-.7-.21-1.3-.47-1.8-.26-.5-.65-.89-1.17-1.17-.52-.27-1.23-.41-2.13-.41-1.59,0-2.73.49-3.44,1.48s-1.07,2.38-1.07,4.18v12.42h-4.67V7.54c0-1.48-.27-2.59-.8-3.34s-1.51-1.13-2.93-1.13c-.6,0-1.18.12-1.74.37s-1.05.6-1.48,1.07c-.42.47-.77,1.04-1.02,1.72-.26.68-.39,1.46-.39,2.34v12.58h-4.67V-.05h-.03Z"/>
        <path class="st0" d="M60.31-.05h5.12l5.53,15.82h.08L76.42-.05h4.88l-8.24,22.34c-.38.96-.76,1.87-1.13,2.75-.37.88-.82,1.65-1.35,2.32s-1.2,1.2-1.99,1.6-1.8.59-3.03.59c-1.09,0-2.17-.08-3.24-.25v-3.94c.38.06.75.12,1.11.19s.72.1,1.11.1c.55,0,1-.07,1.35-.2.35-.14.65-.34.88-.59.23-.26.43-.57.59-.92.16-.36.31-.77.45-1.23l.53-1.64L60.31-.05Z"/>
      </g>
    </g>
    <g>
      <path class="st0" d="M43.94,34.2v8.85h.25c2.36-3.37,5.2-5.98,8.54-7.84,3.33-1.85,7.14-2.78,11.45-2.78s7.9.8,11.32,2.41c3.42,1.6,6.01,4.43,7.78,8.47,1.94-2.87,4.57-5.39,7.9-7.59,3.33-2.19,7.27-3.29,11.83-3.29,3.45,0,6.66.42,9.61,1.27,2.95.84,5.48,2.19,7.59,4.05,2.1,1.85,3.75,4.28,4.93,7.28s1.77,6.6,1.77,10.81v43.76h-17.96v-37.05c0-2.19-.09-4.26-.25-6.2-.17-1.95-.63-3.63-1.39-5.06s-1.88-2.57-3.35-3.42c-1.48-.84-3.48-1.27-6.01-1.27s-4.58.49-6.13,1.46c-1.56.97-2.78,2.23-3.67,3.79s-1.48,3.33-1.77,5.31c-.3,1.99-.44,3.98-.44,6.01v36.43h-17.96v-36.68c0-1.94-.04-3.85-.13-5.75-.08-1.89-.44-3.64-1.07-5.25-.63-1.6-1.69-2.88-3.16-3.85s-3.65-1.46-6.52-1.46c-.84,0-1.96.2-3.35.58-1.39.37-2.74,1.09-4.05,2.15-1.31,1.05-2.42,2.57-3.35,4.55-.93,1.98-1.39,4.57-1.39,7.78v37.94h-17.96V34.2h16.95-.01Z"/>
      <path class="st0" d="M160.3,83.9c2.7,2.61,6.58,3.92,11.64,3.92,3.62,0,6.74-.91,9.36-2.72s4.21-3.73,4.81-5.75h15.81c-2.53,7.84-6.41,13.45-11.64,16.82-5.23,3.38-11.55,5.06-18.97,5.06-5.15,0-9.78-.82-13.92-2.47s-7.63-3.98-10.49-7.02c-2.87-3.04-5.08-6.66-6.64-10.88-1.56-4.21-2.34-8.85-2.34-13.91s.8-9.45,2.4-13.66c1.6-4.22,3.88-7.86,6.83-10.94,2.95-3.08,6.47-5.51,10.56-7.28,4.09-1.77,8.62-2.66,13.6-2.66,5.56,0,10.41,1.08,14.54,3.22,4.13,2.15,7.52,5.04,10.18,8.67,2.66,3.62,4.58,7.76,5.76,12.39,1.18,4.64,1.6,9.49,1.26,14.54h-47.18c.26,5.83,1.73,10.04,4.43,12.65v.02ZM180.59,49.5c-2.15-2.36-5.42-3.54-9.8-3.54-2.87,0-5.24.48-7.14,1.45s-3.42,2.17-4.55,3.6c-1.14,1.44-1.94,2.95-2.4,4.56-.46,1.6-.74,3.04-.82,4.3h29.22c-.84-4.56-2.34-8.02-4.49-10.37h-.02Z"/>
      <path class="st0" d="M230.74,34.2v9.11h.38c2.27-3.8,5.22-6.56,8.85-8.29,3.62-1.73,7.33-2.59,11.13-2.59,4.8,0,8.74.66,11.82,1.97s5.51,3.12,7.28,5.43c1.77,2.32,3.01,5.15,3.73,8.47.72,3.33,1.07,7.02,1.07,11.06v40.22h-17.96v-36.93c0-5.39-.84-9.43-2.53-12.08s-4.68-3.98-8.98-3.98c-4.89,0-8.43,1.46-10.62,4.36-2.19,2.91-3.29,7.7-3.29,14.36v34.27h-17.96V34.2h17.08,0Z"/>
      <path class="st0" d="M332.93,99.59v-9.11h-.38c-2.27,3.8-5.23,6.54-8.85,8.22-3.63,1.69-7.34,2.53-11.13,2.53-4.81,0-8.75-.64-11.83-1.9s-5.5-3.05-7.27-5.37-3.02-5.14-3.73-8.47c-.72-3.33-1.08-7.02-1.08-11.06v-40.22h17.96v36.93c0,5.4.84,9.43,2.53,12.08s4.68,3.98,8.98,3.98c4.89,0,8.43-1.46,10.63-4.36,2.19-2.91,3.29-7.7,3.29-14.36v-34.27h17.96v65.39h-17.08Z"/>
    </g>
    <rect class="st2" y="-.04" width="18.05" height="99.63"/>
  </g>
</svg>